<?xml version="1.0" standalone="no"?>
<!DOCTYPE svg PUBLIC "-//W3C//DTD SVG 20010904//EN"
 "http://www.w3.org/TR/2001/REC-SVG-20010904/DTD/svg10.dtd">
<svg version="1.0" xmlns="http://www.w3.org/2000/svg"
 width="700.000000pt" height="700.000000pt" viewBox="0 0 700.000000 700.000000"
 preserveAspectRatio="xMidYMid meet">
<metadata>
Created by potrace 1.11, written by Peter Selinger 2001-2013
</metadata>
<g transform="translate(0.000000,700.000000) scale(0.100000,-0.100000)"
fill="#000000" stroke="none">
<path d="M2413 6985 c-147 -40 -263 -149 -314 -295 -21 -61 -22 -83 -24 -332
l-2 -266 471 0 c259 -1 492 -1 519 -1 l47 -1 0 -323 0 -322 -1357 0 -1358 0
-3 -777 -2 -778 1808 0 c1958 0 1848 3 1953 -51 58 -29 130 -108 163 -179 l31
-65 3 -242 3 -243 -211 0 c-236 0 -267 -7 -297 -63 -36 -70 -12 -144 58 -180
32 -16 107 -17 1264 -15 1189 3 1231 4 1258 22 35 24 57 65 57 108 0 45 -19
78 -59 105 -33 22 -41 23 -272 23 l-239 0 0 43 c-1 23 -2 319 -3 657 -3 546
-5 624 -21 695 -53 239 -156 427 -325 595 -161 160 -321 252 -541 310 -118 31
-185 34 -937 34 l-713 1 0 323 c0 300 1 322 18 323 9 0 242 1 517 2 l500 2 2
240 c1 132 -3 264 -9 295 -30 167 -163 310 -329 354 -80 21 -1578 22 -1656 1z
m1583 -250 c47 -8 108 -57 131 -105 16 -34 20 -66 21 -161 l2 -118 -908 2
-907 2 -1 115 c-1 102 2 120 23 162 14 30 39 58 65 75 36 25 54 29 142 33 134
7 1392 2 1432 -5z m879 -1559 c99 -17 197 -51 288 -98 53 -28 97 -55 97 -59 0
-4 8 -10 18 -13 18 -6 115 -96 162 -152 51 -58 111 -161 141 -239 64 -165 66
-184 67 -877 l0 -628 -518 0 -519 0 -4 253 c-2 138 -6 263 -10 276 -40 149
-121 280 -219 356 -21 17 -44 35 -52 42 -31 28 -173 85 -242 98 -64 13 -330
15 -1755 15 l-1679 0 0 513 c0 283 2 516 4 518 8 7 4178 2 4221 -5z"/>
<path d="M5637 2701 c-15 -10 -34 -27 -42 -37 -31 -46 -26 -78 62 -347 46
-144 132 -408 190 -587 57 -179 113 -350 123 -380 10 -30 71 -217 135 -415
285 -880 263 -820 311 -852 49 -32 132 -15 168 33 37 51 32 85 -44 319 -39
121 -123 380 -186 575 -63 195 -121 373 -129 395 -7 22 -50 155 -95 295 -46
140 -100 307 -120 370 -21 63 -72 221 -114 350 -42 129 -82 242 -89 250 -40
51 -118 65 -170 31z"/>
<path d="M4354 2645 c-56 -23 -41 15 -249 -630 -59 -181 -113 -349 -121 -372
-7 -24 -41 -127 -75 -230 -33 -104 -88 -271 -121 -373 -216 -665 -288 -893
-288 -916 0 -68 72 -130 140 -121 22 3 53 15 69 26 34 25 3 -68 454 1326 151
464 271 836 319 980 28 88 52 177 51 197 -1 89 -95 149 -179 113z"/>
<path d="M4988 2636 c-66 -44 -62 39 -63 -1291 0 -666 4 -1226 8 -1247 5 -20
22 -49 38 -64 25 -24 38 -28 84 -28 58 0 93 22 119 74 10 19 12 301 12 1256
-1 1156 -2 1232 -19 1257 -40 62 -122 82 -179 43z"/>
<path d="M4478 1411 c-18 -10 -41 -31 -50 -47 -9 -16 -31 -110 -48 -209 -17
-99 -40 -227 -50 -285 -11 -58 -22 -121 -25 -140 -3 -19 -8 -48 -11 -65 -51
-282 -81 -467 -79 -489 7 -58 60 -107 118 -109 76 -2 129 46 141 127 4 21 15
89 26 150 11 61 23 125 26 141 2 17 11 66 19 110 8 44 17 96 20 115 3 19 12
69 20 110 7 41 23 131 35 200 12 69 27 154 35 190 14 74 11 125 -11 157 -35
54 -110 73 -166 44z"/>
<path d="M5533 1419 c-35 -10 -82 -60 -84 -90 -1 -10 -2 -25 -3 -31 -1 -7 4
-42 10 -78 7 -36 14 -78 17 -95 3 -16 10 -57 16 -90 6 -33 13 -76 16 -95 3
-19 17 -98 31 -175 14 -77 34 -192 45 -255 65 -382 68 -393 120 -424 16 -9 47
-18 69 -18 94 -1 145 85 119 202 -4 19 -10 49 -13 65 -3 17 -19 104 -35 195
-17 91 -32 179 -35 195 -23 138 -47 273 -51 285 -2 8 -7 34 -10 58 -3 24 -13
80 -21 125 -8 45 -18 98 -21 117 -15 85 -89 133 -170 109z"/>
</g>
</svg>
